<?xml version="1.0" encoding="utf-8"?>
<!-- Svg Vector Icons : http://www.onlinewebfonts.com/icon -->
<!DOCTYPE svg PUBLIC "-//W3C//DTD SVG 1.1//EN" "http://www.w3.org/Graphics/SVG/1.1/DTD/svg11.dtd">
<svg version="1.1" xmlns="http://www.w3.org/2000/svg" xmlns:xlink="http://www.w3.org/1999/xlink" x="0px" y="0px" viewBox="0 0 1000 1000" enable-background="new 0 0 1000 1000" xml:space="preserve">
<metadata> Svg Vector Icons : http://www.onlinewebfonts.com/icon </metadata>
<g><g><path d="M969.5,199.5h-939c-11.3,0-20.5,9.2-20.5,20.5V780c0,11.3,9.2,20.5,20.5,20.5h939c11.3,0,20.5-9.2,20.5-20.5V220C990,208.6,980.8,199.5,969.5,199.5z M269.8,268.8c55.7,0,100.9,45.2,100.9,100.9s-45.2,100.9-100.9,100.9s-100.9-45.2-100.9-100.9C168.8,314,214,268.8,269.8,268.8z M426.4,731.2h-155h-155C55.7,661.7,128,536,128,536c20.9-33.9,74.5-50,125.4-53.6c6-0.4,12,12.8,18.1,14.6c6-1.8,12.1-15,18.1-14.6C340.5,486,394.1,502.2,415,536C415,536,487.3,661.7,426.4,731.2z M897.1,697.3c0,8.5-6.9,15.4-15.4,15.4H630.7c-8.5,0-15.4-6.9-15.4-15.4V655c0-8.5,6.9-15.4,15.4-15.4h251.1c8.5,0,15.4,6.9,15.4,15.4V697.3z M897.1,564c0,8.5-6.9,15.4-15.4,15.4H630.7c-8.5,0-15.4-6.9-15.4-15.4v-42.3c0-8.5,6.9-15.4,15.4-15.4h251.1c8.5,0,15.4,6.9,15.4,15.4V564z M897.1,430.8c0,8.5-6.9,15.4-15.4,15.4H497.4c-8.5,0-15.4-6.9-15.4-15.4V302.7c0-8.5,6.9-15.4,15.4-15.4h384.3c8.5,0,15.4,6.9,15.4,15.4V430.8z"/></g><g></g><g></g><g></g><g></g><g></g><g></g><g></g><g></g><g></g><g></g><g></g><g></g><g></g><g></g><g></g></g>
</svg>